# xmcd
#
# Track frame offsets:
# 150
# 900
# 1650
# 2400
# 3150
# 3900
# 4650
# 5400
# 6150
# 6900
# 201391
#
# Disc length: 4440 seconds
#
#
# Revision: 3
# Processed by: cddbd v1.5.1PL0 Copyright (c) Steve Scherf et al.
# Submitted via: FreeRIP 2.35 
#
DISCID=5611560b
DTITLE=Joss Stone - The Soul Sessions
DYEAR=2003
DGENRE=Blues
TTITLE0=The Chokin' Kind
TTITLE1=Super Duper Love
TTITLE2=Fell In Love With A Boy
TTITLE3=Victim Of A Foolish Heart
TTITLE4=Dirty Man
TTITLE5=Some Kind Of Wonderful
TTITLE6=I've Fallen In Love With You
TTITLE7=I Had A Dream
TTITLE8=All The King's Horses
TTITLE9=For The Love Of You
TTITLE10=
EXTD=
EXTT0=
EXTT1=
EXTT2=
EXTT3=
EXTT4=
EXTT5=
EXTT6=
EXTT7=
EXTT8=
EXTT9=
EXTT10=
PLAYORDER=
